PathFileType	4	(X/Y/Z)	S1_rest_med_right.trc
DataRate	CameraRate	NumFrames	NumMarkers	Units	OrigDataRate	OrigDataStartFrame	OrigNumFrames
250.00	250.00	14	18	mm	250.00	15402	24643
Frame#	Time	c7	r_should	l_should	clavicle	r_upa	r_elb_l	r_elb_m	r_low	r_wri_l	r_wri_m	r_met	l_upa	l_elb_l	l_elb_m	l_low	l_wri_l	l_wri_m	l_met
	X1	Y1	Z1	X2	Y2	Z2	X3	Y3	Z3	X4	Y4	Z4	X5	Y5	Z5	X6	Y6	Z6	X7	Y7	Z7	X8	Y8	Z8	X9	Y9	Z9	X10	Y10	Z10	X11	Y11	Z11	X12	Y12	Z12	X13	Y13	Z13	X14	Y14	Z14	X15	Y15	Z15	X16	Y16	Z16	X17	Y17	Z17	X18	Y18	Z18
15402	61.60400	406.55338	1415.00964	91.72121	477.12997	1345.20398	255.11694	451.61478	1376.48157	-109.73232	552.57556	1306.83728	61.06688	496.51929	1134.23621	290.70297	529.49036	1038.41589	298.73935	475.78433	1015.80908	210.80461	528.68628	901.48700	275.98065	620.44482	838.45007	297.85162	592.91907	819.71021	227.55682	615.99152	762.35321	324.40057	443.79758	1166.19067	-182.71486	452.23535	1086.34949	-202.98495	385.86240	1050.12354	-134.44151	443.00186	940.92230	-219.08826	532.83539	871.77655	-173.10309	480.38315	844.41272	-219.81432	575.41870	802.97821	-194.66234
15403	61.60800	406.71341	1415.02881	91.73576	477.18701	1345.16235	255.18661	451.90512	1376.51880	-109.69644	552.48865	1307.21704	60.56367	496.39362	1134.15698	290.71561	529.27350	1038.27026	298.77252	475.63315	1015.74182	210.72316	528.14771	901.29700	275.97421	619.53955	837.96277	298.09653	592.10626	819.30438	227.72321	614.75159	761.85431	324.60318	444.00519	1166.24573	-182.70798	452.42056	1086.38379	-202.96765	385.97433	1050.21216	-134.48573	443.08777	940.97961	-219.11038	532.83362	871.74664	-173.06950	480.39502	844.44135	-219.82162	575.37549	802.91925	-194.59766
15404	61.61200	406.87125	1415.05005	91.75356	477.23318	1345.12146	255.25081	452.19583	1376.55615	-109.66479	552.58514	1307.29907	60.50805	496.24493	1134.07727	290.72852	529.05573	1038.13196	298.80460	475.53397	1015.67505	210.62749	527.60907	901.13782	275.95306	618.66534	837.49237	298.33524	591.28888	818.92169	227.89633	613.56488	761.31647	324.79117	444.22089	1166.29407	-182.69473	452.61038	1086.42090	-202.95802	386.09833	1050.31018	-134.53427	443.17447	941.03253	-219.12796	532.83331	871.71924	-173.03238	480.41110	844.46570	-219.81700	575.33740	802.86060	-194.53719
15405	61.61600	407.02374	1415.07361	91.77219	477.27014	1345.08752	255.31638	452.47971	1376.59692	-109.63455	552.82770	1307.13477	60.83324	496.09457	1133.99866	290.74420	528.82489	1037.99585	298.84329	475.56213	1015.57874	210.49051	527.08411	900.96533	275.93091	617.80701	837.02881	298.56067	590.49310	818.56012	228.07240	612.41321	760.76385	324.94055	444.45062	1166.34387	-182.68849	452.80362	1086.46155	-202.95297	386.21085	1050.40503	-134.57990	443.25894	941.08649	-219.14014	532.83667	871.69775	-172.98865	480.41885	844.49359	-219.81577	575.29999	802.81470	-194.47186
15406	61.62000	407.18130	1415.09753	91.79124	477.30670	1345.05872	255.38794	452.77277	1376.64258	-109.60413	553.10376	1306.90930	61.26209	495.93399	1133.92676	290.75742	528.58209	1037.86304	298.87747	475.57404	1015.49567	210.34859	526.55389	900.79553	275.90964	616.95074	836.59247	298.77155	589.71320	818.20880	228.25282	611.22833	760.29742	325.13666	444.68558	1166.39563	-182.67091	452.99744	1086.50049	-202.95924	386.33029	1050.49194	-134.63634	443.34601	941.13794	-219.15746	532.83887	871.67035	-172.94652	480.42441	844.51855	-219.81763	575.26440	802.77399	-194.40576
15407	61.62400	407.33475	1415.11841	91.80148	477.33551	1345.02368	255.46164	453.07834	1376.68066	-109.57130	553.16760	1307.02148	61.16301	495.76797	1133.85327	290.76974	528.33124	1037.73511	298.91800	475.60794	1015.39948	210.18280	526.00964	900.64893	275.88730	616.09247	836.16174	298.98193	588.93976	817.85461	228.43655	610.06079	759.83655	325.33554	444.92294	1166.44116	-182.66344	453.19174	1086.53882	-202.96518	386.44235	1050.56665	-134.68614	443.44086	941.17999	-219.17149	532.84338	871.64117	-172.89952	480.43680	844.54523	-219.80858	575.22504	802.71729	-194.34090
15408	61.62800	407.48044	1415.13904	91.81165	477.35983	1344.98694	255.52916	453.37912	1376.72144	-109.54028	553.40137	1306.87280	61.49493	495.60849	1133.79517	290.77524	528.08191	1037.60596	298.95471	475.54214	1015.32581	210.07413	525.48352	900.51160	275.85699	615.25146	835.74622	299.20352	588.17267	817.51392	228.61932	608.93964	759.33844	325.50125	445.16531	1166.48743	-182.65138	453.38678	1086.57544	-202.96997	386.55963	1050.63000	-134.74190	443.53760	941.22302	-219.18503	532.84723	871.60931	-172.84869	480.45285	844.56873	-219.79967	575.18915	802.65192	-194.26216
15409	61.63200	407.62622	1415.15894	91.82514	477.37491	1344.95789	255.59750	453.68039	1376.75977	-109.51846	553.35254	1307.15991	61.12337	495.44156	1133.71948	290.76941	527.82684	1037.47729	298.98148	475.53223	1015.25964	209.95183	524.99017	900.37299	275.82031	614.39624	835.36316	299.43750	587.44281	817.17633	228.79527	607.83728	758.85687	325.65170	445.40607	1166.52478	-182.63342	453.58478	1086.60913	-202.97171	386.67108	1050.69482	-134.79152	443.63593	941.26593	-219.19803	532.85297	871.57635	-172.79526	480.47827	844.58240	-219.78596	575.15332	802.59143	-194.18883
15410	61.63600	407.76425	1415.17896	91.82284	477.38425	1344.93213	255.66257	453.98239	1376.79077	-109.48275	553.44257	1307.22070	61.10857	495.26505	1133.65283	290.76279	527.57220	1037.35706	299.00101	475.47357	1015.22327	209.84247	524.47028	900.24945	275.79117	613.55902	834.99847	299.66241	586.72717	816.85730	228.97209	606.70178	758.44977	325.85049	445.65399	1166.55896	-182.61983	453.78958	1086.63794	-202.95703	386.78238	1050.75134	-134.85361	443.73911	941.30280	-219.20610	532.86517	871.54675	-172.74136	480.51102	844.58374	-219.76927	575.12677	802.52478	-194.10912
15411	61.64000	407.89627	1415.20276	91.82012	477.39197	1344.90747	255.72786	454.27280	1376.82751	-109.44979	553.56299	1307.22668	61.19384	495.09329	1133.59058	290.75677	527.31964	1037.24292	299.01605	475.35214	1015.18915	209.73969	523.92383	900.13519	275.78177	612.75732	834.62830	299.87787	586.01740	816.55060	229.14183	605.60742	758.03302	326.04153	445.89453	1166.59790	-182.60220	453.99503	1086.66858	-202.94479	386.89252	1050.80957	-134.90465	443.84824	941.33423	-219.21469	532.87305	871.51398	-172.68155	480.54129	844.58783	-219.75879	575.09875	802.45282	-194.02534
15412	61.64400	408.01913	1415.23022	91.81955	477.37961	1344.88379	255.79405	454.56372	1376.86414	-109.42834	553.67712	1307.21790	61.29540	494.92300	1133.52966	290.74371	527.07434	1037.13232	299.02661	475.18747	1015.17200	209.66978	523.39764	900.01514	275.78073	611.96490	834.25568	300.09653	585.29944	816.26031	229.31119	604.54510	757.58826	326.20312	446.13861	1166.63245	-182.57909	454.19870	1086.69592	-202.93623	387.00974	1050.87378	-134.94624	443.95694	941.36859	-219.22006	532.87915	871.47882	-172.61256	480.57092	844.58954	-219.74193	575.07440	802.37677	-193.92769
15413	61.64800	408.13797	1415.26074	91.81229	477.36069	1344.86108	255.85547	454.85547	1376.88696	-109.40314	553.78821	1307.20276	61.40635	494.74725	1133.47925	290.74210	526.82037	1037.04041	299.04160	474.93008	1015.18903	209.64259	522.88947	899.90051	275.77158	611.13513	833.91949	300.33505	584.60132	815.97095	229.48006	603.48083	757.17328	326.36850	446.38669	1166.67249	-182.56534	454.40228	1086.71973	-202.93118	387.13062	1050.93787	-134.99065	444.06552	941.40155	-219.22774	532.88757	871.43958	-172.53973	480.61050	844.59125	-219.71928	575.04712	802.30109	-193.82535
15414	61.65200	408.25632	1415.28467	91.79369	477.34039	1344.83899	255.91628	455.14059	1376.90771	-109.37947	553.88934	1307.18274	61.50963	494.57739	1133.42395	290.73096	526.56958	1036.95264	299.05124	474.64767	1015.20850	209.62785	522.37427	899.79926	275.76077	610.32983	833.60089	300.57938	583.95142	815.69342	229.64803	602.43811	756.81067	326.54584	446.64474	1166.70056	-182.54971	454.60718	1086.73792	-202.92410	387.25238	1051.00049	-135.04599	444.18185	941.43329	-219.23787	532.90350	871.39227	-172.46591	480.66269	844.59192	-219.69865	575.02618	802.21039	-193.72807
15415	61.65600	408.36441	1415.30615	91.76214	477.30667	1344.81262	255.96777	455.42310	1376.92444	-109.35810	553.98352	1307.16321	61.59690	494.41867	1133.36426	290.70322	526.31934	1036.86621	299.06216	474.34424	1015.23712	209.61407	521.85510	899.70074	275.76538	609.57886	833.27734	300.80643	583.31122	815.42010	229.81047	601.39209	756.45807	326.74026	446.89966	1166.71985	-182.52896	454.81683	1086.75720	-202.91298	387.39307	1051.05457	-135.10445	444.30865	941.45667	-219.25031	532.92444	871.33698	-172.39418	480.71466	844.58368	-219.67850	575.01404	802.12012	-193.62697
